<svg xmlns="http://www.w3.org/2000/svg" xmlns:xlink="http://www.w3.org/1999/xlink" viewBox="0 0 1920 1080"><defs><style>.cls-1,.cls-11,.cls-8{fill:none;}.cls-2{clip-path:url(#clip-path);}.cls-3{opacity:0.15;}.cls-4{fill:#600;stroke:#000;}.cls-11,.cls-4{stroke-miterlimit:10;}.cls-5,.cls-6{font-size:86.66px;}.cls-12,.cls-5,.cls-6,.cls-9{fill:#fff;}.cls-5,.cls-7{font-family:Montserrat-Bold, Montserrat;font-weight:700;}.cls-7{font-style:normal;}.cls-8{font-size:12px;}.cls-10{fill:#fc0;}.cls-11{stroke:#fc0;stroke-width:2px;}.cls-12{font-size:50px;font-family:NirmalaUI, Nirmala UI;}</style><clipPath id="clip-path"><path class="cls-1" d="M904.19-307.92c-5.16-.74-14.46-8.33-27.46-9.72s-30.35,4.17-50.58-20.81-13-13.88-30.35-27.76,5.78-4.16-7.23-22.2-10.11-36.09-13-48.58,10.11-33.3,0-44.41-5.78-26.37,0-37.47,0-26.37,18.78-37.47c0,0-2.89-16.65,5.79-25s8.67-16.65,7.22-26.37,1.45-36.08,8.67-43S852.16-666,856.5-671.53s13-9.71,27.45-12.49,33.24-9.71,43.36-15.26,15.89-12.49,30.34-12.49,20.24-9.72,36.13-5.55,18.79-4.17,46.25,9.71,34.68,33.31,43.35,41.64,27.46,45.79,30.35,50,26,62.45,27.46,65.22,4.33,37.47,5.78,43,1.44,16.66,2.89,25,0,12.49,0,30.53-10.12,15.26-7.23,31.92-10.11,25-8.67,33.3,0,38.86-4.33,41.64-14.46,18-30.35,19.43,1.44,11.1-39,8.32a281.39,281.39,0,0,0-28.9,5.55c-17.34,4.17-26,12.49-50.58,4.17,0,0-10.12,4.16-26-1.39S933.09-303.76,904.19-307.92Z"/></clipPath></defs><g id="Layer_15" data-name="Layer 15"><g class="cls-2"><image width="1000" height="1000" transform="translate(576.86 -1212.07) scale(1.45 1.39)" xlink:href="C:%5CUsers%5CDhanushGopi%5CDownloads%5Cproducts1635235212.jpg"/></g></g><g id="Layer_12" data-name="Layer 12"><circle class="cls-3" cx="993" cy="561" r="300"/><circle class="cls-4" cx="968.5" cy="542.5" r="300"/><text class="cls-5" transform="matrix(0.69, 0.46, -0.55, 0.83, 1135.08, 266.25)">	</text><text class="cls-5" transform="matrix(0.35, 0.75, -0.91, 0.42, 1254.67, 397.67)">	</text><text class="cls-5" transform="translate(1287.24 572.38) rotate(97.02) scale(0.83 1)">	</text><text class="cls-5" transform="translate(1223.24 738.08) rotate(128.84) scale(0.83 1)">	</text><text class="cls-5" transform="translate(1081.67 845.47) rotate(160.52) scale(0.83 1)">	</text><text class="cls-5" transform="matrix(-0.81, -0.17, 0.21, -0.98, 904.75, 862.33)">	</text><text class="cls-5" transform="matrix(-0.6, -0.57, 0.69, -0.73, 745.58, 783.68)">	</text><text class="cls-5" transform="translate(651.16 633.17) rotate(-104.34) scale(0.83 1)">	</text><text class="cls-5" transform="translate(650.13 455.43) rotate(-72.72) scale(0.83 1)"> </text><text class="cls-5" transform="matrix(0.29, -0.78, 0.94, 0.35, 655.88, 436.84)"> </text><text class="cls-5" transform="translate(662.74 418.64) rotate(-65.83) scale(0.83 1)"> </text><text class="cls-5" transform="translate(669.47 401.05) rotate(-59.42) scale(0.83 1)">A</text><text class="cls-5" transform="matrix(0.53, -0.64, 0.77, 0.64, 695.8, 356.04)">G</text><text class="cls-5" transform="matrix(0.64, -0.53, 0.64, 0.77, 729.08, 314.79)">M</text><text class="cls-5" transform="translate(780.07 272.71) rotate(-29.39) scale(0.83 1)">A</text><text class="cls-5" transform="matrix(0.78, -0.29, 0.35, 0.94, 826.08, 246.69)">R</text><text class="cls-6" transform="translate(873.55 229.01) rotate(-11.27) scale(0.83 1)"><tspan class="cls-7">K</tspan><tspan class="cls-8"></tspan></text><path class="cls-9" d="M669.14,401.61l-40.8-50.18,5.85-9.91L697.87,353l-6.22,10.52-55.48-11.4,2.35-4,36.7,43.16Zm-5.48-16.27-7.6-8.09L669.23,355l10.79,2.7Z"/><path class="cls-9" d="M716,333.44a25.94,25.94,0,0,1-8.79,6.95,25.43,25.43,0,0,1-10.6,2.5,30.45,30.45,0,0,1-11.33-2A39.42,39.42,0,0,1,666,324.85,30.16,30.16,0,0,1,662,314a25.94,25.94,0,0,1,.58-10.93,28.15,28.15,0,0,1,15.11-17.52,24.67,24.67,0,0,1,11.77-1.94l1.6,11.07a18.82,18.82,0,0,0-7.78,1.29,15,15,0,0,0-5.81,4.33,15.82,15.82,0,0,0-3.22,6,14.8,14.8,0,0,0-.27,6.56,18.44,18.44,0,0,0,2.56,6.53,24.61,24.61,0,0,0,5.3,6,24,24,0,0,0,6.75,4.08,18.91,18.91,0,0,0,6.93,1.37,14.78,14.78,0,0,0,6.41-1.39,15.46,15.46,0,0,0,5.27-4.17,17.51,17.51,0,0,0,3.28-6,19,19,0,0,0,.57-7.8l12,1.4a28.88,28.88,0,0,1-1.7,11A31.33,31.33,0,0,1,716,333.44Zm-1.11-13.56-17.51-14.59,6.81-8.18,18.91,15.75Z"/><path class="cls-9" d="M733.67,311,694.78,264.4l7.4-6.18,43.89,19.13-3.92,3.27-11.26-46.37,7.34-6.13,39,46.47-8.39,7-26-31,1.54-1.29,8.91,36.93-4,3.36-35-15.12,1.88-1.57L742.06,304Z"/><path class="cls-9" d="M779.5,273l-10.21-63.86,10-5.65,49.39,41.81-10.66,6-42.32-37.63,4-2.26,10.18,55.74Zm3.4-16.83-2.53-10.8,22.56-12.71,8,7.74Z"/><path class="cls-9" d="M831.68,244.63l-21-56.92,20.45-7.54A24.17,24.17,0,0,1,843,178.63a18.21,18.21,0,0,1,9.71,4.5,24.51,24.51,0,0,1,6.57,10.14,24,24,0,0,1,1.53,11.86,18,18,0,0,1-4.49,9.64,24.5,24.5,0,0,1-10,6.47l-14.38,5.3,2.73-7.57,8,21.63Zm3.5-24.19-7.13-4.4L841.81,211q5.07-1.86,6.59-5.42a10.87,10.87,0,0,0-.19-8.2c-1.15-3.15-2.89-5.28-5.19-6.4s-5.14-1.06-8.52.18l-13.76,5.07,2.55-8Zm26.53,13.13-19.42-16.31L854,213l19.56,16.25Z"/><path class="cls-9" d="M879.4,227.84l-11.85-59.49,11.35-2.26,11.86,59.49Zm7.52-15.63-3.8-15.77,17.65-34.71,12.7-2.53-15.8,31.87L893,200.49Zm26.27,8.9-22.73-22.42L896,187.42l30.53,31Z"/><path class="cls-10" d="M843,549.77,850,555.9a23.11,23.11,0,0,1-10.66,11.49,36.58,36.58,0,0,1-16.89,3.66,43.69,43.69,0,0,1-27.33-9q-11.8-9-18.3-25.45t-6.5-38.05v-.17q0-24,7.06-41t20.56-25.87q13.5-8.85,32.57-8.86t32.42,9q13.5,9,20.56,26.21t7.06,41.37v.17a133.69,133.69,0,0,1-3,26.81,299.29,299.29,0,0,1-8.34,31.07c-.47,1.59-1,3.18-1.48,4.77s-1.06,3.12-1.63,4.6L839.36,672.69h-41Zm3.18-30.22q5.58-7.9,5.58-22.38V497q0-14-5.58-21.54t-15.75-7.57q-10.32,0-15.9,7.66T809,497.17v.17q0,14.48,5.58,22.3t15.9,7.83Q840.63,527.47,846.21,519.55Z"/><path class="cls-10" d="M938.68,656.6Q923,638,923,604.93V492.4q0-33.36,15.75-51.84t45.71-18.47q30.09,0,45.78,18.39t15.68,51.92V604.93q0,33.38-15.76,51.84t-45.7,18.47Q954.37,675.24,938.68,656.6Zm63-35.92q5.5-9.61,5.51-27.67V504.32q0-18-5.51-27.67T984.46,467q-11.73,0-17.24,9.61t-5.51,27.67V593q0,18,5.51,27.67t17.24,9.62Q996.19,630.3,1001.7,620.68Z"/><path class="cls-10" d="M1115,525.14a58.11,58.11,0,0,1-13.37-4.74,47.73,47.73,0,0,1-11-7.52l13.7-20.6A50.07,50.07,0,0,0,1117,499.5a35.25,35.25,0,0,0,12.64,2.54q7.78,0,12.08-2.1c2.86-1.4,4.3-3.33,4.3-5.81a6.79,6.79,0,0,0-1.87-5.17,10.61,10.61,0,0,0-4.78-2.49,64.31,64.31,0,0,0-8.19-1.32l-3-.39-3-.39a3.84,3.84,0,0,0-.69-.15,5.89,5.89,0,0,0-.69-.05,77.44,77.44,0,0,1-15.08-3.61,19.83,19.83,0,0,1-9.6-8.25q-3.93-6.1-3.93-17.73,0-10.15,4-17.38a26.4,26.4,0,0,1,11.75-11q7.71-3.75,18.64-3.76a53.46,53.46,0,0,1,12.77,1.57,58,58,0,0,1,12.2,4.49,56.77,56.77,0,0,1,10.78,7L1152.2,455a49.4,49.4,0,0,0-11.51-5.76,35.49,35.49,0,0,0-11.51-2q-6.73,0-10.46,1.86c-2.48,1.23-3.73,3-3.73,5.17a4.6,4.6,0,0,0,2,4,13.17,13.17,0,0,0,4.94,2.05c2,.42,4.85.89,8.64,1.41l1.45.2,1.46.19a2.39,2.39,0,0,0,.73.1,2.68,2.68,0,0,1,.73.1,84.94,84.94,0,0,1,16,3.52,21,21,0,0,1,10.49,8.59q4.33,6.45,4.34,18.94,0,10.56-4.21,18.07a27.66,27.66,0,0,1-12.32,11.48q-8.12,3.94-19.54,4A66.69,66.69,0,0,1,1115,525.14Z"/><path class="cls-10" d="M1086.71,442a17.89,17.89,0,0,1-3.32,10.4c-.35,6.84-3.53,16.68-17.68,21.6,0,0,4.51-8.2,4.87-14.09-.61.06-1.24.09-1.87.09a18,18,0,1,1,18-18Z"/><circle class="cls-11" cx="968.5" cy="542.5" r="275"/></g><g id="Layer_13" data-name="Layer 13"><text class="cls-12" transform="translate(901.19 984.14) scale(0.83 1)">நன்றி</text></g></svg>