<svg xmlns="http://www.w3.org/2000/svg" viewBox="0 0 550 180"><defs><style>.cls-1{fill:#f20058;}.cls-2{fill:#fff1bf;}.cls-3{font-size:100px;}.cls-3,.cls-4{fill:#630;font-family:ArialRoundedMTBold, Arial Rounded MT Bold;}.cls-4{font-size:80px;}</style></defs><g id="Layer_5" data-name="Layer 5"><path class="cls-1" d="M157.53,94.59a73.39,73.39,0,0,1-2.08,11.58,78.2,78.2,0,0,1-3.08,9.28,80.36,80.36,0,0,1-3.76,8.1l0,0a90.65,90.65,0,0,1-11.38,16.65,68.57,68.57,0,0,1-5.52,5.79,39.48,39.48,0,0,1-9.63,6.72c-5,2.42-10.61,3.48-16.16,4.34l-1.26.19q-13.11,2-26.3,3.23h-.09c-5.47.53-11,1-16.44,0C49.54,158.29,39.9,149.26,31,140.64c-1.4-1.36-2.8-2.73-4.19-4.14h0c-6.6-6.69-12.71-14-14.78-23C9.21,101.16,15.54,87.31,26.85,81.2l0,.39c6.35-7.31,5.48-18.1,8.18-27.34,3.52-12.1,13.16-21.39,22.42-30.08,4.6-4.32,9.59-8.84,15.86-9.9a19.3,19.3,0,0,1,4.92-.15,48.2,48.2,0,0,1,10.63,2.63C108,23.14,127.94,30.4,141.46,44.91h0c.7.76,1.39,1.53,2.05,2.32A62.08,62.08,0,0,1,157,77.48h0A67.55,67.55,0,0,1,157.53,94.59Z"/><path class="cls-2" d="M63,70.91c-1.15-2-2.34-4.15-2.28-6.46s1.9-4.74,4.25-4.58c1.78.11,3.15,1.61,4,3.16s1.34,3.76.47,5.45S66,71,64.61,69.66"/><path class="cls-2" d="M50.5,127.05a2.59,2.59,0,0,1,3-1.33,2.53,2.53,0,0,1,1.7,2.8,5.49,5.49,0,0,1-4.65.26,1.44,1.44,0,0,1,.56-1.72"/><path class="cls-2" d="M123.86,45.74a3.24,3.24,0,0,1,5,.78,3,3,0,1,1-5.69.46"/><text class="cls-3" transform="translate(197.14 96.64)">ASTRO</text><text class="cls-4" transform="translate(357.21 176.71)">bites</text></g></svg>